<svg width="148" height="24" viewBox="0 0 148 24" fill="none" xmlns="http://www.w3.org/2000/svg">
<path d="M17.2446 11.352C18.5246 11.7573 19.5273 12.44 20.2526 13.4C20.978 14.3387 21.3406 15.5013 21.3406 16.888C21.3406 18.8507 20.5726 20.3653 19.0366 21.432C17.522 22.4773 15.3033 23 12.3806 23H0.796625V0.599998H11.7406C14.4713 0.599998 16.562 1.12267 18.0126 2.168C19.4846 3.21333 20.2206 4.632 20.2206 6.424C20.2206 7.512 19.954 8.48267 19.4206 9.336C18.9086 10.1893 18.1833 10.8613 17.2446 11.352ZM5.94863 4.504V9.784H11.1006C12.3806 9.784 13.3513 9.56 14.0126 9.112C14.674 8.664 15.0046 8.00267 15.0046 7.128C15.0046 6.25333 14.674 5.60267 14.0126 5.176C13.3513 4.728 12.3806 4.504 11.1006 4.504H5.94863ZM11.9966 19.096C13.362 19.096 14.386 18.872 15.0686 18.424C15.7726 17.976 16.1246 17.2827 16.1246 16.344C16.1246 14.488 14.7486 13.56 11.9966 13.56H5.94863V19.096H11.9966ZM42.7374 23L38.4174 16.76H38.1614H33.6494V23H28.4654V0.599998H38.1614C40.1454 0.599998 41.8627 0.930665 43.3134 1.592C44.7854 2.25333 45.916 3.192 46.7054 4.408C47.4947 5.624 47.8894 7.064 47.8894 8.728C47.8894 10.392 47.484 11.832 46.6734 13.048C45.884 14.2427 44.7534 15.16 43.2814 15.8L48.3054 23H42.7374ZM42.6414 8.728C42.6414 7.46933 42.236 6.50933 41.4254 5.848C40.6147 5.16533 39.4307 4.824 37.8734 4.824H33.6494V12.632H37.8734C39.4307 12.632 40.6147 12.2907 41.4254 11.608C42.236 10.9253 42.6414 9.96533 42.6414 8.728ZM72.5406 18.84V23H55.1966V0.599998H72.1246V4.76H60.3486V9.624H70.7486V13.656H60.3486V18.84H72.5406ZM87.2254 23.384C85.4547 23.384 83.7374 23.1493 82.0734 22.68C80.4307 22.1893 79.108 21.56 78.1054 20.792L79.8654 16.888C80.8254 17.592 81.9667 18.1573 83.2894 18.584C84.612 19.0107 85.9347 19.224 87.2574 19.224C88.7294 19.224 89.8174 19.0107 90.5214 18.584C91.2254 18.136 91.5774 17.5493 91.5774 16.824C91.5774 16.2907 91.364 15.8533 90.9374 15.512C90.532 15.1493 89.9987 14.8613 89.3374 14.648C88.6974 14.4347 87.8227 14.2 86.7134 13.944C85.0067 13.5387 83.6094 13.1333 82.5214 12.728C81.4334 12.3227 80.4947 11.672 79.7054 10.776C78.9374 9.88 78.5534 8.68533 78.5534 7.192C78.5534 5.89067 78.9054 4.71733 79.6094 3.672C80.3134 2.60533 81.3694 1.76267 82.7774 1.144C84.2067 0.525333 85.9454 0.216 87.9934 0.216C89.4227 0.216 90.82 0.386666 92.1854 0.727999C93.5507 1.06933 94.7454 1.56 95.7694 2.2L94.1694 6.136C92.1 4.96267 90.0307 4.376 87.9614 4.376C86.5107 4.376 85.4334 4.61067 84.7294 5.08C84.0467 5.54933 83.7054 6.168 83.7054 6.936C83.7054 7.704 84.1 8.28 84.8894 8.664C85.7 9.02667 86.9267 9.38933 88.5694 9.752C90.276 10.1573 91.6734 10.5627 92.7614 10.968C93.8494 11.3733 94.7774 12.0133 95.5454 12.888C96.3347 13.7627 96.7294 14.9467 96.7294 16.44C96.7294 17.72 96.3667 18.8933 95.6414 19.96C94.9374 21.0053 93.8707 21.8373 92.4414 22.456C91.012 23.0747 89.2734 23.384 87.2254 23.384ZM107.799 4.824H100.631V0.599998H120.151V4.824H112.983V23H107.799V4.824ZM139.767 18.2H129.367L127.383 23H122.071L132.055 0.599998H137.175L147.191 23H141.751L139.767 18.2ZM138.135 14.264L134.583 5.688L131.031 14.264H138.135Z" fill="#A6A19B"/>
</svg>
