<svg width="163" height="54" viewBox="0 0 163 54" fill="none" xmlns="http://www.w3.org/2000/svg">
<rect width="163" height="54" fill="#AACE39"/>
<path d="M30.564 31.546V35H16.77V32.272L24.536 23.054H16.968V19.6H30.234V22.328L22.468 31.546H30.564ZM40.1087 35.308C38.4807 35.308 37.0141 34.9633 35.7087 34.274C34.4181 33.5847 33.3987 32.6313 32.6507 31.414C31.9174 30.1967 31.5507 28.8253 31.5507 27.3C31.5507 25.7747 31.9174 24.4033 32.6507 23.186C33.3987 21.9687 34.4181 21.0153 35.7087 20.326C37.0141 19.6367 38.4807 19.292 40.1087 19.292C41.7367 19.292 43.1961 19.6367 44.4867 20.326C45.7921 21.0153 46.8114 21.9687 47.5447 23.186C48.2927 24.4033 48.6667 25.7747 48.6667 27.3C48.6667 28.8253 48.2927 30.1967 47.5447 31.414C46.8114 32.6313 45.7921 33.5847 44.4867 34.274C43.1961 34.9633 41.7367 35.308 40.1087 35.308ZM40.1087 31.7C40.8861 31.7 41.5901 31.5167 42.2207 31.15C42.8514 30.7833 43.3501 30.27 43.7167 29.61C44.0834 28.9353 44.2667 28.1653 44.2667 27.3C44.2667 26.4347 44.0834 25.672 43.7167 25.012C43.3501 24.3373 42.8514 23.8167 42.2207 23.45C41.5901 23.0833 40.8861 22.9 40.1087 22.9C39.3314 22.9 38.6274 23.0833 37.9967 23.45C37.3661 23.8167 36.8674 24.3373 36.5007 25.012C36.1341 25.672 35.9507 26.4347 35.9507 27.3C35.9507 28.1653 36.1341 28.9353 36.5007 29.61C36.8674 30.27 37.3661 30.7833 37.9967 31.15C38.6274 31.5167 39.3314 31.7 40.1087 31.7ZM58.7142 35.308C57.0862 35.308 55.6195 34.9633 54.3142 34.274C53.0235 33.5847 52.0042 32.6313 51.2562 31.414C50.5229 30.1967 50.1562 28.8253 50.1562 27.3C50.1562 25.7747 50.5229 24.4033 51.2562 23.186C52.0042 21.9687 53.0235 21.0153 54.3142 20.326C55.6195 19.6367 57.0862 19.292 58.7142 19.292C60.3422 19.292 61.8015 19.6367 63.0922 20.326C64.3975 21.0153 65.4169 21.9687 66.1502 23.186C66.8982 24.4033 67.2722 25.7747 67.2722 27.3C67.2722 28.8253 66.8982 30.1967 66.1502 31.414C65.4169 32.6313 64.3975 33.5847 63.0922 34.274C61.8015 34.9633 60.3422 35.308 58.7142 35.308ZM58.7142 31.7C59.4915 31.7 60.1955 31.5167 60.8262 31.15C61.4569 30.7833 61.9555 30.27 62.3222 29.61C62.6889 28.9353 62.8722 28.1653 62.8722 27.3C62.8722 26.4347 62.6889 25.672 62.3222 25.012C61.9555 24.3373 61.4569 23.8167 60.8262 23.45C60.1955 23.0833 59.4915 22.9 58.7142 22.9C57.9369 22.9 57.2329 23.0833 56.6022 23.45C55.9715 23.8167 55.4729 24.3373 55.1062 25.012C54.7395 25.672 54.5562 26.4347 54.5562 27.3C54.5562 28.1653 54.7395 28.9353 55.1062 29.61C55.4729 30.27 55.9715 30.7833 56.6022 31.15C57.2329 31.5167 57.9369 31.7 58.7142 31.7ZM83.4577 35L83.4137 26.838L79.4537 33.482H77.5177L73.5797 27.058V35H69.5537V19.6H73.1397L78.5517 28.488L83.8317 19.6H87.4177L87.4617 35H83.4577ZM90.5439 19.6H94.8999V31.546H102.248V35H90.5439V19.6ZM103.972 19.6H108.328V35H103.972V19.6ZM119.193 35.308C117.565 35.308 116.098 34.9633 114.793 34.274C113.502 33.5847 112.483 32.6313 111.735 31.414C111.001 30.1967 110.635 28.8253 110.635 27.3C110.635 25.7747 111.001 24.4033 111.735 23.186C112.483 21.9687 113.502 21.0153 114.793 20.326C116.098 19.6367 117.565 19.292 119.193 19.292C120.821 19.292 122.28 19.6367 123.571 20.326C124.876 21.0153 125.895 21.9687 126.629 23.186C127.377 24.4033 127.751 25.7747 127.751 27.3C127.751 28.8253 127.377 30.1967 126.629 31.414C125.895 32.6313 124.876 33.5847 123.571 34.274C122.28 34.9633 120.821 35.308 119.193 35.308ZM119.193 31.7C119.97 31.7 120.674 31.5167 121.305 31.15C121.935 30.7833 122.434 30.27 122.801 29.61C123.167 28.9353 123.351 28.1653 123.351 27.3C123.351 26.4347 123.167 25.672 122.801 25.012C122.434 24.3373 121.935 23.8167 121.305 23.45C120.674 23.0833 119.97 22.9 119.193 22.9C118.415 22.9 117.711 23.0833 117.081 23.45C116.45 23.8167 115.951 24.3373 115.585 25.012C115.218 25.672 115.035 26.4347 115.035 27.3C115.035 28.1653 115.218 28.9353 115.585 29.61C115.951 30.27 116.45 30.7833 117.081 31.15C117.711 31.5167 118.415 31.7 119.193 31.7ZM144.684 19.6V35H141.098L134.3 26.794V35H130.032V19.6H133.618L140.416 27.806V19.6H144.684Z" fill="#343839"/>
</svg>
