<svg width="2017" height="1849" viewBox="0 0 2017 1849" fill="none" xmlns="http://www.w3.org/2000/svg">
<g clip-path="url(#clip0_47:23)">
<path d="M831 926.434C868.9 974.696 907.5 1035.38 927.7 1072.03C952.3 1119.68 962.5 1151.86 980.8 1209.49C991.5 1241.05 1001.7 1250.62 1023.1 1250.62C1046.5 1250.62 1057.2 1234.53 1065.4 1209.49C1082.5 1155.42 1095.7 1114.29 1116.6 1075.09C1197.2 920.325 1328.6 810.363 1402.6 659.673C1402.6 659.673 1451.3 567.631 1451.3 438.73C1451.3 318.586 1403.3 235.096 1403.3 235.096L831.3 927.453L831 926.434Z" fill="#34A853"/>
<path d="M637 643.383C683.1 750.291 771 843.963 831 926.435L1149 542.584C1149 542.584 1104.1 602.452 1023 602.452C932.6 602.452 859 529.144 859 436.49C859 372.753 896.3 328.564 896.3 328.564C662.3 363.996 675.3 421.727 636.3 643.179L637 643.383Z" fill="#FBBC04"/>
<path d="M1153 19.9562C1259 54.6758 1349 127.882 1403 234.79L1149 543.296C1149 543.296 1186.3 498.904 1186.3 435.37C1186.3 340.782 1107.9 269.408 1023.3 269.408C943 269.408 897.3 328.564 897.3 328.564C916.8 283.357 1118.3 35.3306 1153.3 20.058L1153 19.9562Z" fill="#4285F4"/>
<path d="M695 155.679C758.2 79.1123 869 -0.10144 1022 -0.10144C1095.9 -0.10144 1152 19.8547 1152 19.8547L897 328.361C879.8 318.861 712 185.817 695 155.272V155.679Z" fill="#1A73E8"/>
<path d="M637 643.383C637 643.383 595.3 559.078 595.3 437.712C595.3 322.659 639.5 221.86 695.3 156.697L897.3 329.786L637.3 643.383H637Z" fill="#EA4335"/>
</g>
<defs>
<clipPath id="clip0_47:23">
<rect width="2017" height="1849" fill="white"/>
</clipPath>
</defs>
</svg>
