<svg width="150" height="60" viewBox="0 0 1148 505" fill="none" xmlns="http://www.w3.org/2000/svg">
<path d="M355.224 7.75575C355.392 12.0645 355.785 15.7103 356.009 15.9755C356.233 16.1743 363.244 18.8258 371.544 21.8088C390.612 28.7028 393.752 30.4263 399.36 37.1213C403.174 41.6289 404.071 43.2198 407.605 51.771C409.792 57.0077 413.83 68.4756 416.578 77.2256C419.326 85.9756 427.794 113.22 435.477 137.68L449.386 182.292H480.455C497.504 182.292 511.469 182.16 511.469 182.093C511.469 181.961 503.954 156.97 494.7 126.544C485.503 96.1177 477.034 67.8127 475.856 63.6366C470.697 44.6782 470.36 35.5304 474.567 30.6914C477.09 27.7747 478.717 27.1118 496.046 21.2122L511.188 16.0417L511.076 12.197C511.02 10.0095 510.796 6.42999 510.627 4.10991L510.235 4.77433e-05L491.672 0.464064C467.556 1.12694 386.798 1.12694 368.796 0.464064L354.831 4.77433e-05L355.224 7.75575Z" fill="#2F4E76"/>
<path d="M660.927 8.15347C661.151 12.5948 661.488 16.4395 661.712 16.6383C661.88 16.8372 667.601 18.7596 674.387 20.8808C692.277 26.449 694.857 27.4433 697.549 30.1611C701.418 34.0721 701.923 39.8392 699.399 51.0418C697.941 57.4055 689.697 83.3904 671.639 138.012C663.731 161.942 657.282 181.762 657.282 181.961C657.282 182.16 665.526 182.292 675.677 182.292H694.015L714.485 124.091C739.947 51.7047 744.321 40.8998 751.107 34.6024C755.089 30.824 758.454 29.1668 776.176 22.538L793.281 16.108L793.169 10.8713C793.113 8.0209 792.888 4.37506 792.72 2.85043L792.383 4.77433e-05L777.97 0.530352C759.351 1.12694 695.642 1.12694 675.901 0.530352L660.534 4.77433e-05L660.927 8.15347Z" fill="#2F4E76"/>
<path d="M497.28 192.567C479.446 196.014 464.472 208.012 457.63 224.319C453.704 233.732 452.919 238.438 452.919 252.557C452.919 263.959 453.031 265.218 454.433 270.654C455.274 273.902 456.62 278.078 457.406 279.934C462.902 292.861 473.838 303.931 486.344 309.234C494.7 312.747 500.252 313.808 510.908 313.808C520.946 313.808 526.499 312.946 533.901 310.427C539.678 308.438 549.717 303.003 549.436 302.008C546.183 292.463 541.529 280.398 541.024 280.398C540.687 280.398 538.388 281.26 535.864 282.387C528.405 285.635 522.797 287.094 515.955 287.425C508.104 287.889 502.944 286.762 497.112 283.381C487.634 277.88 482.082 266.345 482.138 252.226C482.194 230.749 493.635 218.021 512.871 218.021C520.105 218.021 525.489 219.148 534.631 222.529C538.22 223.855 541.304 224.783 541.36 224.65C541.809 223.987 549.044 203.107 549.044 202.444C549.044 200.787 536.649 195.086 528.854 193.163C522.741 191.705 503.673 191.307 497.28 192.567Z" fill="white"/>
<path d="M0 252.491V311.554H31.9668C59.0544 311.554 64.6626 311.421 68.308 310.493C82.6089 306.98 92.4793 296.573 94.7787 282.586C95.7321 276.885 95.2274 268.4 93.7131 263.694C92.1989 259.054 87.9367 253.353 83.8988 250.502L80.9825 248.448L84.4035 244.338C88.5536 239.499 90.2361 234.858 90.6847 227.235C91.6942 210.862 84.5157 200.124 69.4857 195.417C64.943 194.025 63.5971 193.959 32.4154 193.76L0 193.495V252.491ZM57.9889 220.739C61.8585 223.059 63.1484 229.158 60.849 233.864C58.9423 237.709 57.6524 237.974 42.9589 237.974H29.7235V228.627V219.281L43.071 219.546C53.5023 219.679 56.699 219.944 57.9889 220.739ZM62.6437 263.959C65.0552 265.55 66.5694 268.002 67.0181 271.118C67.8593 277.15 65.8404 282.122 61.4099 284.442C59.447 285.503 57.5402 285.701 44.4731 285.701H29.7235V274.035V262.434L45.3143 262.633C58.774 262.832 61.0734 262.965 62.6437 263.959Z" fill="white"/>
<path d="M111.042 252.557V311.554H154.506H197.97V298.296V285.039H169.087H140.205V274.432V263.826H164.881H189.557V250.9V237.974H164.881H140.205V229.025V220.076H167.966H195.726V206.819V193.561H153.384H111.042V252.557Z" fill="white"/>
<path d="M228.871 232.804C226.572 254.413 224.328 273.637 223.88 275.559C222.197 282.52 217.879 286.298 211.598 286.364H208.064V310.559V334.755H220.403C227.188 334.755 232.741 334.556 232.741 334.224C232.741 333.959 233.133 328.987 233.582 323.154C234.03 317.321 234.423 312.349 234.423 312.018C234.423 311.753 248.668 311.554 266.109 311.554H297.796L298.02 313.012C298.301 314.537 299.478 331.44 299.478 333.561C299.478 334.688 300.432 334.755 312.097 334.755H324.715L324.603 310.361L324.435 286.033L318.995 285.834L313.499 285.635V239.631V193.561H273.232H233.021L228.871 232.804ZM284.897 252.557V285.701H267.007H249.117L250.743 280.199C252.089 275.626 252.818 269.991 255.173 247.718C256.688 232.87 257.977 220.474 257.977 220.076C257.977 219.679 262.632 219.413 271.437 219.413H284.897V252.557Z" fill="white"/>
<path d="M338.175 252.557V311.554L351.466 311.421L364.758 311.222L386.405 277.681L407.997 244.139L408.165 277.813L408.277 311.554H422.578H436.879V252.557V193.561L423.588 193.694L410.352 193.892L388.705 227.699L367.057 261.506L366.889 227.501L366.777 193.561H352.476H338.175V252.557Z" fill="white"/>
<path d="M615.22 252.557V311.554H630.082H644.944V265.484V219.413H671.863H698.782V206.487V193.561H657.001H615.22V252.557Z" fill="white"/>
<path d="M715.046 252.491V311.554H729.628H744.209V296.97V282.387H752.79C770.119 282.387 779.26 280.531 788.402 275.36C800.908 268.201 807.582 254.944 807.582 237.444C807.526 216.563 797.151 201.516 778.531 195.351C774.437 194.025 772.811 193.959 744.658 193.694L715.046 193.495V252.491ZM766.642 220.143C770.736 221.203 774.437 224.385 776.176 228.362C777.354 231.146 777.578 232.538 777.578 237.643C777.578 244.603 776.568 247.453 772.867 251.43C769.39 255.143 766.418 255.872 754.472 255.872H744.209V237.643V219.413H754.023C759.351 219.413 765.072 219.745 766.642 220.143Z" fill="white"/>
<path d="M812.685 195.019C813.078 195.881 822.387 215.569 833.492 238.769C844.54 262.037 853.569 281.393 853.569 281.79C853.569 283.182 851.214 286.364 849.475 287.491C848.185 288.22 845.661 288.684 840.838 288.883L833.94 289.215L833.66 291.27C833.323 293.391 831.136 311.421 831.136 311.885C831.136 312.018 832.987 312.482 835.23 312.946C841.063 314.205 854.018 314.006 858.897 312.614C868.936 309.83 876.226 302.671 882.451 289.679C884.022 286.364 909.539 222.595 918.961 198.334L920.811 193.561H905.838H890.864L880.488 224.054C874.824 240.824 870.001 254.281 869.833 254.016C869.608 253.751 863.944 240.029 857.214 223.523L844.932 193.561H828.5H812.012L812.685 195.019Z" fill="white"/>
<path d="M934.327 252.557V311.554H949.189H964.051V265.484V219.413H983.119H1002.19V265.484V311.554H1016.77H1031.35V252.557V193.561H982.838H934.327V252.557Z" fill="white"/>
<path d="M1050.98 252.557V311.554H1065.84H1080.7V265.484V219.413H1099.77H1118.84V265.484V311.554H1133.42H1148V252.557V193.561H1099.49H1050.98V252.557Z" fill="white"/>
<path d="M554.652 260.181V272.444H577.926H601.2V260.181V247.917H577.926H554.652V260.181Z" fill="white"/>
<path d="M494.195 325.275C494.588 326.933 550.221 504.717 550.446 504.982C550.614 505.247 581.235 502.463 581.347 502.264C581.459 501.999 643.205 326.336 643.542 325.275C643.934 324.215 642.925 324.148 627.11 324.148H610.229L608.547 329.253C601.48 350.995 581.515 411.251 581.403 411.45C581.291 411.582 575.234 392.027 567.999 368.097L554.764 324.48L524.367 324.281C495.597 324.148 493.971 324.215 494.195 325.275Z" fill="#2F4E76"/>
<path d="M839.829 353.647C835.286 354.575 832.09 356.364 829.902 359.082C826.65 363.06 825.752 369.224 827.715 374.196C829.959 380.029 833.267 381.753 845.886 384.073C859.065 386.526 860.86 387.52 860.86 392.624C860.86 395.806 859.121 398.06 855.644 399.518C851.718 401.109 840.502 401.109 834.501 399.452C832.202 398.789 829.959 398.259 829.51 398.192C828.949 398.126 828.332 399.385 827.715 401.705L826.762 405.351L828.276 406.147C832.202 408.268 838.259 409.329 846.278 409.329C855.139 409.329 858.953 408.401 863.552 405.285C870.001 400.844 871.684 388.978 866.692 382.482C863.944 378.836 860.411 377.378 849.251 375.124C838.707 373.003 836.24 371.942 835.399 369.025C834.669 366.639 836.296 364.054 839.268 362.662C843.867 360.607 857.158 361.469 863.103 364.253C863.776 364.518 864.281 363.656 865.178 360.673L866.412 356.696L862.935 355.37C856.093 352.652 847.288 351.989 839.829 353.647Z" fill="white"/>
<path d="M923.223 353.647C915.372 355.702 909.763 360.408 906.847 367.501C901.351 380.758 904.436 397.662 913.633 404.954C920.98 410.721 930.738 411.118 941.225 406.014C942.011 405.616 942.347 405.882 942.571 406.942C942.852 408.135 943.3 408.334 946.161 408.334H949.469V392.425V376.516H939.599H929.785L929.953 379.963L930.121 383.476L933.767 383.609C935.785 383.741 938.253 383.94 939.263 384.139L941.057 384.537V391.099V397.662L937.861 399.12C933.318 401.175 926.195 401.573 922.718 400.048C914.082 396.137 910.212 383.542 914.25 372.34C915.764 368.23 919.914 363.855 923.672 362.397C928.719 360.474 938.477 361.336 943.917 364.186C944.59 364.518 945.095 363.855 946.048 361.137C947.226 357.823 947.226 357.624 946.273 356.762C944.983 355.702 940.552 354.111 936.234 353.315C931.804 352.453 927.485 352.586 923.223 353.647Z" fill="white"/>
<path d="M1020.13 353.58C1008.41 356.563 1002.07 367.633 1002.92 383.808C1003.48 395.872 1008.02 403.76 1016.71 407.804C1019.35 408.997 1020.97 409.262 1026.58 409.262C1034.49 409.262 1038.02 408.003 1042.73 403.429C1052.32 394.215 1053 371.345 1044.02 360.541C1038.7 354.111 1029.05 351.26 1020.13 353.58ZM1031.97 362.065C1035.84 363.656 1038.02 365.91 1039.87 370.417C1041.56 374.461 1041.72 375.256 1041.67 381.156C1041.56 394.613 1036.62 401.109 1026.53 401.109C1018.28 401.109 1013.23 396.203 1011.72 386.791C1010.6 379.897 1011.83 371.478 1014.47 367.501C1016.09 365.048 1018.28 363.192 1020.64 362.198C1023.16 361.137 1029.44 361.005 1031.97 362.065Z" fill="white"/>
<path d="M660.647 354.575C660.647 354.84 664.909 367.037 670.069 381.554L679.546 408.003L684.818 408.202L690.146 408.401L699.456 382.283C704.615 367.965 708.989 355.702 709.214 355.105C709.494 354.111 709.046 353.978 705.064 353.978H700.633L693.118 375.92C688.968 387.984 685.379 397.927 685.099 397.993C684.874 397.993 681.229 388.116 677.079 375.986L669.452 353.978H665.077C662.61 353.978 660.647 354.243 660.647 354.575Z" fill="white"/>
<path d="M715.607 381.156V408.334H734.675H753.743V404.357V400.38H739.162H724.58V392.094V383.808H737.199H749.817V379.831V375.853H737.199H724.58V368.893V361.933H738.601H752.621V357.955V353.978H734.114H715.607V381.156Z" fill="white"/>
<path d="M761.034 381.09V408.334H773.54C787.448 408.334 790.813 407.738 795.3 404.357C801.693 399.452 804.946 388.448 803.656 376.118C802.591 366.175 798.384 359.082 791.542 355.901C788.458 354.442 787.336 354.31 774.662 354.111L761.034 353.846V381.09ZM785.429 362.927C789.636 364.253 791.991 366.374 793.617 370.351C794.795 373.135 794.963 374.461 794.963 381.488C794.963 388.382 794.795 389.774 793.73 392.094C790.869 398.391 788.009 399.849 777.746 400.247L770.007 400.512V381.223V361.933H776.064C779.709 361.933 783.41 362.33 785.429 362.927Z" fill="white"/>
<path d="M810.947 381.156V408.334H815.153H819.359V381.156V353.978H815.153H810.947V381.156Z" fill="white"/>
<path d="M957.882 381.156V408.334H962.088H966.294V400.38V392.425H973.192L980.034 392.492L983.848 400.38L987.661 408.334H992.428C995.064 408.334 997.083 408.135 996.971 407.804C990.522 395.474 988.166 390.901 988.166 390.437C988.166 390.105 988.671 389.641 989.344 389.442C991.195 388.713 994.84 384.537 996.186 381.554C997.195 379.3 997.42 377.709 997.42 372.539C997.42 365.115 996.41 362.264 992.541 358.353C988.727 354.442 986.428 353.978 971.229 353.978H957.882V381.156ZM985.474 363.789C989.232 366.573 990.466 374.726 987.774 379.035C985.194 383.145 984.353 383.476 974.931 383.675L966.294 383.874V372.87V361.8L974.875 362.065C982.614 362.264 983.567 362.397 985.474 363.789Z" fill="white"/>
<path d="M1057.82 373.666C1057.99 392.624 1058.04 393.552 1059.28 396.734C1063.09 406.478 1073.02 411.516 1083.62 408.997C1090.46 407.406 1094.55 403.76 1097.36 396.734L1098.93 392.757L1099.1 373.334L1099.26 353.978H1095.06H1090.8V371.346C1090.8 381.885 1090.57 389.84 1090.18 391.431C1088.72 397.662 1084.68 400.976 1078.57 401.043C1072.74 401.043 1069.65 398.988 1067.47 393.419C1066.18 390.171 1066.12 389.641 1066.12 372.008V353.978H1061.86H1057.65L1057.82 373.666Z" fill="white"/>
<path d="M1108.18 381.156V408.334H1112.39H1116.59V401.109V393.884L1125.74 393.618C1136.22 393.287 1139.59 392.16 1143.35 387.918C1146.65 384.139 1147.66 381.09 1147.89 374.329C1148.11 368.827 1148 368.164 1146.37 364.253C1144.41 359.613 1142.06 357.094 1137.85 355.238C1135.44 354.111 1133.42 353.978 1121.64 353.978H1108.18V381.156ZM1135.04 363.59C1138.41 365.91 1139.31 368.031 1139.31 373.533C1139.31 378.836 1138.58 380.692 1135.44 383.41C1134.09 384.67 1132.97 384.802 1125.23 385.001L1116.59 385.2V373.533V361.8L1124.89 362.065C1131.9 362.198 1133.42 362.463 1135.04 363.59Z" fill="white"/>
<path d="M877.684 384.471V388.448H888.62H899.556V384.471V380.493H888.62H877.684V384.471Z" fill="white"/>
</svg>
