<?xml version="1.0" standalone="no"?>
<!DOCTYPE svg PUBLIC "-//W3C//DTD SVG 20010904//EN"
 "http://www.w3.org/TR/2001/REC-SVG-20010904/DTD/svg10.dtd">
<svg version="1.0" xmlns="http://www.w3.org/2000/svg"
 width="2442.000000pt" height="1222.000000pt" viewBox="0 0 2442.000000 1222.000000"
 preserveAspectRatio="xMidYMid meet">
<metadata>
Created by potrace 1.16, written by Peter Selinger 2001-2019
</metadata>
<g transform="translate(0.000000,1222.000000) scale(0.100000,-0.100000)"
fill="#BFBFBF" stroke="none">
<path d="M8304 9803 c3 -65 10 -120 14 -124 4 -3 129 -43 277 -88 340 -104
396 -130 496 -231 68 -68 84 -92 147 -221 39 -79 111 -252 160 -384 49 -132
200 -543 337 -912 l248 -673 554 0 c304 0 553 2 553 3 0 2 -134 379 -299 838
-164 459 -315 886 -336 949 -92 286 -98 424 -23 497 45 44 74 54 383 143 l270
78 -2 58 c-1 33 -5 87 -8 122 l-7 62 -331 -7 c-430 -10 -1870 -10 -2191 0
l-249 7 7 -117z"/>
<path d="M13755 9797 c4 -67 10 -125 14 -128 3 -3 105 -32 226 -64 319 -84
365 -99 413 -140 69 -59 78 -146 33 -315 -26 -96 -173 -488 -495 -1312 -141
-361 -256 -660 -256 -663 0 -3 147 -5 328 -5 l327 0 365 878 c454 1092 532
1255 653 1350 71 57 131 82 447 182 l305 97 -2 79 c-1 43 -5 98 -8 121 l-6 43
-257 -8 c-332 -9 -1468 -9 -1820 0 l-274 8 7 -123z"/>
<path d="M10837 7015 c-318 -52 -585 -233 -707 -479 -70 -142 -84 -213 -84
-426 0 -172 2 -191 27 -273 15 -49 39 -112 53 -140 98 -195 293 -362 516 -442
149 -53 248 -69 438 -69 179 0 278 13 410 51 103 30 282 112 277 127 -58 144
-141 326 -150 326 -6 0 -47 -13 -92 -30 -133 -49 -233 -71 -355 -76 -140 -7
-232 10 -336 61 -169 83 -268 257 -267 470 1 324 205 516 548 516 129 0 225
-17 388 -68 64 -20 119 -34 120 -32 8 10 137 325 137 335 0 25 -221 111 -360
140 -109 22 -449 28 -563 9z"/>
<path d="M1970 6111 l0 -891 570 0 c483 0 583 2 648 16 255 53 431 210 472
421 17 86 8 214 -19 285 -27 70 -103 156 -175 199 l-52 31 61 62 c74 73 104
143 112 258 18 247 -110 409 -378 480 -81 21 -105 22 -661 25 l-578 4 0 -890z
m1034 479 c69 -35 92 -127 51 -198 -34 -58 -57 -62 -319 -62 l-236 0 0 141 0
141 238 -4 c186 -2 243 -6 266 -18z m83 -652 c43 -24 70 -61 78 -108 15 -91
-21 -166 -100 -201 -35 -16 -69 -19 -302 -19 l-263 0 0 176 0 175 278 -3 c240
-3 281 -5 309 -20z"/>
<path d="M3950 6110 l0 -890 775 0 775 0 0 200 0 200 -515 0 -515 0 0 160 0
160 440 0 440 0 0 195 0 195 -440 0 -440 0 0 135 0 135 495 0 495 0 0 200 0
200 -755 0 -755 0 0 -890z"/>
<path d="M6051 6408 c-41 -326 -81 -616 -89 -645 -30 -105 -107 -162 -219
-163 l-63 0 0 -365 0 -365 220 0 c121 0 220 3 220 8 0 4 7 79 15 167 8 88 15
163 15 168 0 4 254 7 565 7 l565 0 4 -22 c5 -23 26 -278 26 -310 0 -17 17 -18
225 -18 l225 0 -2 368 -3 367 -97 3 -98 3 0 694 0 695 -718 0 -717 0 -74 -592z
m999 -298 l0 -500 -319 0 -319 0 29 83 c24 69 37 154 79 490 27 224 50 411 50
417 0 6 83 10 240 10 l240 0 0 -500z"/>
<path d="M8000 6110 l0 -890 237 2 237 3 386 506 385 506 3 -508 2 -509 255 0
255 0 0 890 0 890 -237 -2 -236 -3 -386 -510 -386 -510 -3 513 -2 512 -255 0
-255 0 0 -890z"/>
<path d="M12940 6110 l0 -890 265 0 265 0 0 695 0 695 480 0 480 0 0 195 0
195 -745 0 -745 0 0 -890z"/>
<path d="M14720 6111 l0 -891 260 0 260 0 0 220 0 220 153 0 c309 0 472 28
635 106 223 108 342 308 342 572 -1 315 -186 542 -518 635 -73 20 -102 21
-604 25 l-528 3 0 -890z m920 488 c73 -16 139 -64 170 -124 21 -42 25 -63 25
-140 0 -105 -18 -148 -84 -208 -62 -56 -115 -67 -328 -67 l-183 0 0 275 0 275
175 0 c95 0 197 -5 225 -11z"/>
<path d="M16461 6978 c7 -13 173 -310 371 -660 197 -351 358 -643 358 -649 0
-21 -42 -69 -73 -86 -23 -11 -68 -18 -154 -21 l-123 -5 -5 -31 c-6 -32 -45
-304 -45 -311 0 -2 33 -9 73 -16 104 -19 335 -16 422 5 179 42 309 150 420
346 28 50 483 1012 651 1378 l33 72 -267 0 -267 0 -185 -460 c-101 -253 -187
-456 -190 -452 -4 4 -105 211 -225 460 l-219 452 -293 0 -294 0 12 -22z"/>
<path d="M18630 6110 l0 -890 265 0 265 0 0 695 0 695 340 0 340 0 0 -695 0
-695 260 0 260 0 0 890 0 890 -865 0 -865 0 0 -890z"/>
<path d="M20710 6110 l0 -890 265 0 265 0 0 695 0 695 340 0 340 0 0 -695 0
-695 260 0 260 0 0 890 0 890 -865 0 -865 0 0 -890z"/>
<path d="M11860 5995 l0 -185 415 0 415 0 0 185 0 185 -415 0 -415 0 0 -185z"/>
<path d="M10782 5013 c7 -25 999 -2707 1003 -2711 3 -4 549 38 551 41 2 4
1103 2654 1109 2670 7 16 -11 17 -293 17 l-301 0 -30 -77 c-126 -328 -482
-1237 -484 -1240 -2 -2 -110 293 -239 654 l-236 658 -542 3 c-513 2 -542 1
-538 -15z"/>
<path d="M16945 4585 c-81 -14 -138 -41 -177 -82 -58 -60 -74 -153 -39 -228
40 -88 99 -114 324 -149 235 -37 267 -52 267 -129 0 -48 -31 -82 -93 -104 -70
-24 -270 -24 -377 1 -41 10 -81 18 -89 19 -10 1 -21 -18 -32 -53 l-17 -55 27
-12 c70 -32 178 -48 321 -48 158 0 226 14 308 61 115 67 145 246 56 344 -49
55 -112 77 -311 111 -188 32 -232 48 -247 92 -13 36 16 75 69 96 82 31 319 18
425 -24 12 -4 21 9 37 54 l22 60 -62 20 c-122 41 -279 51 -412 26z"/>
<path d="M18432 4585 c-140 -31 -240 -102 -292 -209 -98 -200 -43 -455 121
-565 131 -87 305 -93 492 -16 14 6 20 2 24 -14 5 -18 13 -21 64 -21 l59 0 0
240 0 240 -176 0 -175 0 3 -52 3 -53 65 -2 c36 -2 80 -5 98 -8 l32 -6 0 -99 0
-99 -57 -22 c-81 -31 -208 -37 -270 -14 -154 59 -223 249 -151 418 27 62 101
128 168 150 90 29 264 16 361 -27 12 -5 21 5 38 46 21 50 21 53 4 66 -23 16
-102 40 -179 52 -79 13 -156 11 -232 -5z"/>
<path d="M20160 4586 c-209 -45 -322 -212 -307 -456 10 -182 91 -301 246 -362
47 -18 76 -22 176 -22 141 0 204 19 288 88 171 139 183 484 23 647 -95 97
-267 140 -426 105z m211 -128 c69 -24 108 -58 141 -126 30 -61 33 -73 32 -162
-2 -203 -90 -301 -270 -301 -147 0 -237 74 -264 216 -20 104 2 231 49 291 29
37 68 65 110 80 45 16 157 18 202 2z"/>
<path d="M13750 4571 c0 -4 76 -188 168 -407 l169 -399 94 -3 95 -3 166 394
c92 216 170 401 174 410 5 15 -3 17 -74 17 l-79 0 -134 -331 c-74 -182 -138
-332 -143 -333 -4 0 -69 149 -143 332 l-136 332 -78 0 c-44 0 -79 -4 -79 -9z"/>
<path d="M14730 4170 l0 -410 340 0 340 0 0 60 0 60 -260 0 -260 0 0 125 0
125 225 0 225 0 0 60 0 60 -225 0 -225 0 0 105 0 105 250 0 250 0 0 60 0 60
-330 0 -330 0 0 -410z"/>
<path d="M15540 4171 l0 -411 223 0 c248 0 308 9 388 60 114 74 172 240 149
426 -19 150 -94 257 -216 305 -55 22 -75 24 -301 27 l-243 4 0 -411z m435 274
c75 -20 117 -52 146 -112 21 -42 24 -62 24 -168 0 -104 -3 -125 -22 -160 -51
-95 -102 -117 -285 -123 l-138 -4 0 291 0 291 108 0 c65 0 131 -6 167 -15z"/>
<path d="M16430 4170 l0 -410 75 0 75 0 0 410 0 410 -75 0 -75 0 0 -410z"/>
<path d="M19050 4170 l0 -410 75 0 75 0 0 120 0 120 123 0 122 -1 68 -119 68
-120 85 0 c47 0 83 3 81 8 -115 186 -157 255 -157 262 0 5 9 12 21 15 33 11
98 74 122 119 18 34 22 58 22 136 0 112 -18 155 -87 214 -68 59 -109 66 -380
66 l-238 0 0 -410z m492 262 c67 -42 89 -165 41 -230 -46 -62 -61 -67 -229
-70 l-154 -3 0 166 0 167 153 -4 c138 -3 155 -5 189 -26z"/>
<path d="M20832 4283 c3 -286 4 -300 26 -348 68 -147 245 -223 434 -185 122
24 195 79 245 185 l28 60 3 293 3 292 -75 0 -76 0 0 -262 c0 -159 -4 -279 -11
-303 -26 -94 -98 -144 -207 -145 -104 0 -159 31 -198 115 -23 49 -24 57 -24
323 l0 272 -76 0 -75 0 3 -297z"/>
<path d="M21730 4170 l0 -410 75 0 75 0 0 109 0 109 163 4 c187 5 247 22 314
86 59 57 77 103 81 205 4 83 2 93 -27 152 -35 70 -77 108 -152 136 -43 17 -79
19 -289 19 l-240 0 0 -410z m479 265 c60 -35 76 -67 76 -150 0 -80 -13 -108
-69 -149 -24 -19 -44 -21 -182 -24 l-154 -3 0 176 0 177 148 -4 c125 -2 152
-6 181 -23z"/>
<path d="M17620 4120 l0 -60 195 0 195 0 0 60 0 60 -195 0 -195 0 0 -60z"/>
</g>
</svg>
