<svg width="853" height="1245" viewBox="0 0 853 1245" fill="none" xmlns="http://www.w3.org/2000/svg">
<path d="M232 920.339C269.9 968.6 308.5 1029.28 328.7 1065.94C353.3 1113.59 363.5 1145.76 381.8 1203.39C392.5 1234.95 402.7 1244.52 424.1 1244.52C447.5 1244.52 458.2 1228.44 466.4 1203.39C483.5 1149.33 496.7 1108.19 517.6 1068.99C598.2 914.23 729.6 804.267 803.6 653.578C803.6 653.578 852.3 561.535 852.3 432.634C852.3 312.49 804.3 229 804.3 229L232.3 921.357L232 920.339Z" fill="#34A853"/>
<path d="M41.7 638.819C87.8 745.727 175.7 839.399 235.7 921.87L553.7 538.02C553.7 538.02 508.8 597.888 427.7 597.888C337.3 597.888 263.7 524.58 263.7 431.926C263.7 368.189 301 324 301 324C67 359.432 80 417.163 41 638.615L41.7 638.819Z" fill="#FBBC04"/>
<path d="M41.7 639.686C41.7 639.686 0 555.381 0 434.015C0 318.962 44.2 218.163 100 153L302 326.089L42 639.686H41.7Z" fill="#EA4335"/>
<path d="M97 156.28C160.2 79.7138 271 0.5 424 0.5C497.9 0.5 554 20.4562 554 20.4562L299 328.962C281.8 319.463 114 186.418 97 155.873V156.28Z" fill="#1A73E8"/>
<path d="M552.7 20C658.7 54.7197 748.7 127.926 802.7 234.834L548.7 543.34C548.7 543.34 586 498.948 586 435.414C586 340.826 507.6 269.452 423 269.452C342.7 269.452 297 328.608 297 328.608C316.5 283.401 518 35.3744 553 20.1018L552.7 20Z" fill="#4285F4"/>
</svg>
