<svg width="209" height="91" viewBox="0 0 209 91" fill="none" xmlns="http://www.w3.org/2000/svg">
<path d="M64.6706 1.39499C64.7012 2.16994 64.7727 2.82566 64.8135 2.87335C64.8544 2.90912 66.1306 3.38601 67.6417 3.92251C71.1131 5.16243 71.6849 5.47241 72.7059 6.67656C73.4002 7.48728 73.5636 7.77341 74.2068 9.31139C74.605 10.2532 75.3401 12.3158 75.8404 13.8895C76.3407 15.4633 77.8824 20.3634 79.2812 24.7627L81.8133 32.7864H87.4697C90.5735 32.7864 93.1158 32.7625 93.1158 32.7506C93.1158 32.7268 91.7477 28.2321 90.063 22.7597C88.3886 17.2874 86.8468 12.1966 86.6324 11.4455C85.6931 8.0357 85.6318 6.39043 86.3976 5.5201C86.8571 4.99552 87.1531 4.8763 90.3081 3.81521L93.0648 2.88527L93.0444 2.19378C93.0341 1.80035 92.9933 1.15654 92.9627 0.739262L92.8912 8.05054e-05L89.5117 0.0835365C85.1213 0.202759 70.4189 0.202759 67.1414 0.0835365L64.5991 8.05054e-05L64.6706 1.39499Z" fill="#1C4472"/>
<path d="M120.326 1.46652C120.366 2.26532 120.428 2.95681 120.468 2.99258C120.499 3.02834 121.541 3.37409 122.776 3.7556C126.033 4.75707 126.503 4.93591 126.993 5.42472C127.697 6.12814 127.789 7.16538 127.33 9.18024C127.064 10.3248 125.563 14.9983 122.276 24.8223C120.836 29.1262 119.662 32.691 119.662 32.7268C119.662 32.7625 121.163 32.7864 123.011 32.7864H126.349L130.076 22.3186C134.711 9.29947 135.508 7.35613 136.743 6.22352C137.468 5.54395 138.081 5.24589 141.307 4.05366L144.421 2.8972L144.401 1.95534C144.391 1.44268 144.35 0.786952 144.319 0.512739L144.258 8.05054e-05L141.634 0.0954588C138.244 0.202759 126.646 0.202759 123.052 0.0954588L120.254 8.05054e-05L120.326 1.46652Z" fill="#1C4472"/>
<path d="M90.5327 34.6343C87.2859 35.2543 84.5598 37.4122 83.3142 40.3451C82.5995 42.0381 82.4565 42.8845 82.4565 45.424C82.4565 47.4746 82.477 47.7011 82.7322 48.6788C82.8854 49.263 83.1304 50.0141 83.2733 50.3479C84.2739 52.6727 86.2649 54.6638 88.5417 55.6175C90.063 56.2494 91.0738 56.4402 93.0137 56.4402C94.8414 56.4402 95.8521 56.2852 97.1999 55.8321C98.2515 55.4745 100.079 54.4969 100.028 54.318C99.4359 52.6012 98.5884 50.4314 98.4966 50.4314C98.4353 50.4314 98.0167 50.5863 97.5572 50.789C96.1993 51.3732 95.1783 51.6355 93.9327 51.6951C92.5032 51.7786 91.5639 51.5759 90.5021 50.9679C88.7766 49.9783 87.7658 47.9038 87.776 45.3644C87.7862 41.5016 89.869 39.2125 93.3711 39.2125C94.6882 39.2125 95.6684 39.4152 97.3326 40.0232C97.9861 40.2616 98.5476 40.4286 98.5578 40.4047C98.6395 40.2855 99.9566 36.53 99.9566 36.4107C99.9566 36.1127 97.7002 35.0874 96.281 34.7416C95.1681 34.4793 91.6967 34.4078 90.5327 34.6343Z" fill="#BFBFBF"/>
<path d="M0 45.4119V56.0347H5.81974C10.7512 56.0347 11.7722 56.0108 12.4359 55.8439C15.0394 55.212 16.8364 53.3402 17.255 50.8246C17.4286 49.7993 17.3367 48.2733 17.061 47.4268C16.7853 46.5922 16.0094 45.5669 15.2743 45.0542L14.7433 44.6846L15.3661 43.9455C16.1217 43.0751 16.428 42.2406 16.5097 40.8695C16.6935 37.9247 15.3866 35.9933 12.6503 35.1468C11.8233 34.8965 11.5782 34.8845 5.90142 34.8488L0 34.8011V45.4119ZM10.5572 39.7011C11.2617 40.1184 11.4965 41.2153 11.0779 42.0617C10.7308 42.7532 10.4959 42.8009 7.82091 42.8009H5.41133V41.1199V39.4388L7.84133 39.4865C9.7404 39.5104 10.3224 39.5581 10.5572 39.7011ZM11.4046 47.4745C11.8437 47.7606 12.1193 48.2017 12.201 48.7621C12.3542 49.847 11.9866 50.7412 11.18 51.1585C10.8227 51.3492 10.4755 51.385 8.09658 51.385H5.41133V49.2867V47.2003L8.24973 47.236C10.7001 47.2718 11.1188 47.2956 11.4046 47.4745Z" fill="#BFBFBF"/>
<path d="M20.2158 45.4238V56.0347H28.1286H36.0414V53.6502V51.2658H30.7832H25.5251V49.3582V47.4506H30.0175H34.5099V45.1258V42.8009H30.0175H25.5251V41.1914V39.5819H30.579H35.633V37.1975V34.813H27.9244H20.2158V45.4238Z" fill="#BFBFBF"/>
<path d="M41.6673 41.871C41.2487 45.7577 40.8403 49.2152 40.7586 49.5609C40.4523 50.8128 39.6662 51.4923 38.5226 51.5042H37.8794V55.8559V60.2075H40.1256C41.361 60.2075 42.3718 60.1718 42.3718 60.1121C42.3718 60.0645 42.4433 59.1703 42.525 58.1211C42.6067 57.072 42.6781 56.1778 42.6781 56.1182C42.6781 56.0705 45.2715 56.0347 48.4468 56.0347H54.2155L54.2563 56.297C54.3074 56.5712 54.5218 59.6114 54.5218 59.9929C54.5218 60.1956 54.6954 60.2075 56.8191 60.2075H59.1163L59.0959 55.8201L59.0653 51.4446L58.0749 51.4089L57.0743 51.3731V43.099V34.813H49.7435H42.4229L41.6673 41.871ZM51.8672 45.4239V51.385H48.6102H45.3532L45.6493 50.3955C45.8943 49.5728 46.027 48.5594 46.4558 44.5536C46.7315 41.883 46.9664 39.6535 46.9664 39.582C46.9664 39.5104 47.8138 39.4627 49.4168 39.4627H51.8672V45.4239Z" fill="#BFBFBF"/>
<path d="M61.5667 45.4238V56.0347L63.9864 56.0108L66.4062 55.9751L70.3473 49.9424L74.2782 43.9097L74.3088 49.9662L74.3292 56.0347H76.9328H79.5364V45.4238V34.813L77.1166 34.8368L74.707 34.8726L70.7659 40.953L66.8248 47.0333L66.7942 40.9172L66.7738 34.813H64.1702H61.5667V45.4238Z" fill="#BFBFBF"/>
<path d="M112.004 45.4238V56.0347H114.71H117.416V47.7487V39.4627H122.317H127.217V37.1378V34.813H119.611H112.004V45.4238Z" fill="#BFBFBF"/>
<path d="M130.178 45.4119V56.0347H132.833H135.487V53.4118V50.7889H137.05C140.205 50.7889 141.869 50.455 143.533 49.5251C145.81 48.2375 147.025 45.853 147.025 42.7055C147.015 38.95 145.126 36.2437 141.736 35.1349C140.991 34.8965 140.695 34.8845 135.569 34.8368L130.178 34.8011V45.4119ZM139.571 39.5938C140.317 39.7846 140.991 40.3569 141.307 41.0722C141.522 41.5729 141.562 41.8233 141.562 42.7413C141.562 43.9932 141.379 44.5058 140.705 45.2212C140.072 45.8888 139.531 46.0199 137.356 46.0199H135.487V42.7413V39.4627H137.274C138.244 39.4627 139.286 39.5223 139.571 39.5938Z" fill="#BFBFBF"/>
<path d="M147.954 35.0752C148.026 35.2302 149.72 38.7711 151.742 42.9439C153.753 47.1287 155.397 50.61 155.397 50.6815C155.397 50.9319 154.968 51.5041 154.652 51.7068C154.417 51.838 153.958 51.9214 153.08 51.9572L151.824 52.0168L151.773 52.3864C151.711 52.7679 151.313 56.0108 151.313 56.0942C151.313 56.1181 151.65 56.2015 152.059 56.285C153.12 56.5115 155.479 56.4757 156.367 56.2254C158.195 55.7246 159.522 54.437 160.655 52.1003C160.941 51.5041 165.587 40.0349 167.302 35.6713L167.639 34.8129H164.913H162.187L160.298 40.2972C159.267 43.3135 158.389 45.7338 158.358 45.6861C158.317 45.6384 157.286 43.1705 156.061 40.2018L153.825 34.8129H150.833H147.832L147.954 35.0752Z" fill="#BFBFBF"/>
<path d="M170.1 45.4238V56.0347H172.805H175.511V47.7487V39.4627H178.982H182.454V47.7487V56.0347H185.108H187.763V45.4238V34.813H178.931H170.1V45.4238Z" fill="#BFBFBF"/>
<path d="M191.337 45.4238V56.0347H194.042H196.748V47.7487V39.4627H200.219H203.691V47.7487V56.0347H206.345H209V45.4238V34.813H200.168H191.337V45.4238Z" fill="#BFBFBF"/>
<path d="M100.978 46.7951V49.0007H105.215H109.452V46.7951V44.5895H105.215H100.978V46.7951Z" fill="#BFBFBF"/>
<path d="M89.9711 58.5026C90.0425 58.8007 100.171 90.7763 100.212 90.8239C100.242 90.8716 105.817 90.3709 105.838 90.3351C105.858 90.2874 117.099 58.6934 117.16 58.5026C117.232 58.3119 117.048 58.2999 114.169 58.2999H111.096L110.789 59.218C109.503 63.1285 105.868 73.9658 105.848 74.0016C105.827 74.0254 104.725 70.5084 103.408 66.2044L100.998 58.3596L95.4641 58.3238C90.2263 58.2999 89.9302 58.3119 89.9711 58.5026Z" fill="#1C4472"/>
<path d="M152.896 63.6054C152.069 63.7723 151.487 64.0942 151.088 64.583C150.496 65.2984 150.333 66.4071 150.69 67.3013C151.099 68.3505 151.701 68.6604 153.998 69.0777C156.398 69.5188 156.724 69.6977 156.724 70.6157C156.724 71.188 156.408 71.5933 155.775 71.8556C155.06 72.1418 153.018 72.1418 151.926 71.8437C151.507 71.7245 151.099 71.6291 151.017 71.6172C150.915 71.6053 150.803 71.8318 150.69 72.2491L150.517 72.9048L150.792 73.0478C151.507 73.4294 152.61 73.6201 154.07 73.6201C155.683 73.6201 156.377 73.4532 157.214 72.8929C158.389 72.0941 158.695 69.96 157.786 68.7916C157.286 68.1359 156.643 67.8736 154.611 67.4682C152.691 67.0867 152.242 66.8959 152.089 66.3714C151.956 65.9422 152.252 65.4772 152.794 65.2268C153.631 64.8572 156.051 65.0122 157.133 65.513C157.255 65.5607 157.347 65.4057 157.511 64.8692L157.735 64.1538L157.102 63.9154C155.857 63.4266 154.254 63.3073 152.896 63.6054Z" fill="#BFBFBF"/>
<path d="M168.078 63.6055C166.649 63.9751 165.628 64.8216 165.097 66.0973C164.096 68.4818 164.658 71.5219 166.332 72.8334C167.67 73.8706 169.446 73.9422 171.355 73.0241C171.498 72.9526 171.56 73.0003 171.6 73.1911C171.652 73.4057 171.733 73.4414 172.254 73.4414H172.856V70.5801V67.7187H171.059H169.273L169.303 68.3387L169.334 68.9706L169.997 68.9944C170.365 69.0183 170.814 69.054 170.998 69.0898L171.325 69.1613V70.3416V71.5219L170.743 71.7842C169.916 72.1538 168.619 72.2253 167.986 71.9511C166.414 71.2477 165.709 68.9825 166.444 66.9676C166.72 66.2284 167.476 65.4416 168.16 65.1793C169.079 64.8335 170.855 64.9885 171.846 65.5012C171.968 65.5608 172.06 65.4416 172.233 64.9528C172.448 64.3566 172.448 64.3209 172.274 64.1659C172.039 63.9751 171.233 63.689 170.447 63.5459C169.64 63.3909 168.854 63.4148 168.078 63.6055Z" fill="#BFBFBF"/>
<path d="M185.721 63.5934C183.587 64.1299 182.433 66.121 182.587 69.03C182.689 71.1999 183.516 72.6186 185.098 73.3459C185.578 73.5605 185.874 73.6082 186.895 73.6082C188.335 73.6082 188.978 73.3816 189.836 72.559C191.582 70.9018 191.704 66.7886 190.071 64.8453C189.101 63.6888 187.344 63.1762 185.721 63.5934ZM187.875 65.1195C188.58 65.4056 188.978 65.811 189.315 66.6217C189.621 67.349 189.652 67.492 189.642 68.5531C189.621 70.9733 188.723 72.1417 186.885 72.1417C185.384 72.1417 184.465 71.2595 184.19 69.5665C183.985 68.3266 184.21 66.8124 184.69 66.0971C184.986 65.656 185.384 65.3222 185.813 65.1433C186.272 64.9526 187.416 64.9287 187.875 65.1195Z" fill="#BFBFBF"/>
<path d="M120.274 63.7722C120.274 63.8199 121.05 66.0136 121.99 68.6246L123.715 73.3816L124.675 73.4174L125.645 73.4531L127.34 68.7557C128.279 66.1805 129.075 63.9749 129.116 63.8676C129.167 63.6888 129.086 63.6649 128.361 63.6649H127.554L126.186 67.6112C125.43 69.7811 124.777 71.5694 124.726 71.5813C124.685 71.5813 124.022 69.8049 123.266 67.6231L121.877 63.6649H121.081C120.632 63.6649 120.274 63.7126 120.274 63.7722Z" fill="#BFBFBF"/>
<path d="M130.281 68.553V73.4412H133.752H137.223V72.7258V72.0105H134.569H131.914V70.5202V69.0299H134.211H136.509V68.3146V67.5992H134.211H131.914V66.3474V65.0956H134.467H137.019V64.3802V63.6649H133.65H130.281V68.553Z" fill="#BFBFBF"/>
<path d="M138.551 68.5411V73.4412H140.827C143.359 73.4412 143.972 73.3339 144.789 72.7258C145.953 71.8436 146.545 69.8645 146.31 67.6469C146.116 65.8586 145.35 64.5829 144.105 64.0106C143.543 63.7483 143.339 63.7245 141.032 63.6887L138.551 63.641V68.5411ZM142.992 65.2744C143.758 65.5128 144.186 65.8944 144.483 66.6097C144.697 67.1104 144.728 67.3489 144.728 68.6126C144.728 69.8526 144.697 70.1029 144.503 70.5202C143.982 71.6528 143.462 71.9151 141.593 71.9866L140.184 72.0343V68.5649V65.0956H141.287C141.95 65.0956 142.624 65.1671 142.992 65.2744Z" fill="#BFBFBF"/>
<path d="M147.637 68.553V73.4412H148.403H149.169V68.553V63.6649H148.403H147.637V68.553Z" fill="#BFBFBF"/>
<path d="M174.388 68.553V73.4412H175.154H175.919V72.0105V70.5798H177.175L178.421 70.5917L179.115 72.0105L179.809 73.4412H180.677C181.157 73.4412 181.525 73.4054 181.504 73.3458C180.33 71.1282 179.901 70.3056 179.901 70.2221C179.901 70.1625 179.993 70.0791 180.116 70.0433C180.453 69.9122 181.116 69.1611 181.361 68.6246C181.545 68.2192 181.586 67.9331 181.586 67.0031C181.586 65.6678 181.402 65.1552 180.698 64.4518C180.003 63.7483 179.585 63.6649 176.818 63.6649H174.388V68.553ZM179.411 65.4294C180.095 65.9301 180.32 67.3966 179.83 68.1715C179.36 68.9107 179.207 68.9703 177.492 69.0061L175.919 69.0418V67.0627V65.0717L177.482 65.1194C178.891 65.1552 179.064 65.179 179.411 65.4294Z" fill="#BFBFBF"/>
<path d="M192.582 67.2059C192.613 70.6157 192.623 70.7826 192.848 71.3549C193.542 73.1075 195.349 74.0136 197.279 73.5605C198.524 73.2744 199.27 72.6187 199.78 71.3549L200.066 70.6396L200.097 67.1463L200.127 63.665H199.362H198.586V66.7887C198.586 68.6843 198.545 70.115 198.473 70.4011C198.208 71.5218 197.473 72.1179 196.36 72.1298C195.298 72.1298 194.736 71.7602 194.338 70.7588C194.103 70.1746 194.093 70.0792 194.093 66.9079V63.665H193.317H192.552L192.582 67.2059Z" fill="#BFBFBF"/>
<path d="M201.751 68.553V73.4412H202.516H203.282V72.1416V70.8421L204.946 70.7944C206.856 70.7348 207.468 70.5321 208.152 69.7691C208.755 69.0895 208.939 68.5411 208.979 67.325C209.02 66.3355 209 66.2163 208.704 65.5128C208.346 64.6783 207.918 64.2252 207.152 63.8914C206.713 63.6887 206.345 63.6649 204.201 63.6649H201.751V68.553ZM206.641 65.3936C207.254 65.8109 207.417 66.1924 207.417 67.182C207.417 68.1357 207.285 68.4696 206.713 68.9584C206.468 69.1849 206.264 69.2087 204.855 69.2445L203.282 69.2803V67.182V65.0717L204.793 65.1194C206.07 65.1432 206.345 65.1909 206.641 65.3936Z" fill="#BFBFBF"/>
<path d="M159.788 69.1492V69.8645H161.779H163.77V69.1492V68.4338H161.779H159.788V69.1492Z" fill="#BFBFBF"/>
</svg>
