<svg width="225" height="225" viewBox="0 0 225 225" fill="none" xmlns="http://www.w3.org/2000/svg">
<path d="M100.8 29.1C93.0998 30.2 82.0998 34.1 75.1998 38.2C65.7998 43.6 53.0998 57.1 48.1998 66.7C37.0998 88.2 37.0998 112.9 47.9998 133.9C53.0998 143.7 59.9998 151.3 74.8998 163.9C95.9998 181.7 104 191.7 107 203.7C107.8 207 108.6 208.1 110.6 208.6C114.1 209.5 116.1 207.3 117.7 200.8C120.2 190.9 127.4 182 144.3 167.9C167.8 148.1 174.4 139.9 180.3 123.3C183.3 115 183.5 113.7 183.4 100.5C183.4 88.1 183.1 85.6 180.7 78.5C169.4 44.5 136 23.9 100.8 29.1ZM122.5 77.4C128 79.9 133.4 85.4 135.8 90.9C137.7 95.5 137.7 105.5 135.8 110.1C130.6 122.3 116.7 128.7 103.8 124.8C98.7998 123.3 91.5998 117 88.6998 111.6C85.6998 105.9 85.6998 95.1 88.6998 89.4C91.3998 84.4 98.6998 77.7 103.2 76.3C109.1 74.4 117.1 74.8 122.5 77.4Z" fill="#EC5440"/>
</svg>
